<svg xmlns="http://www.w3.org/2000/svg" xmlns:xlink="http://www.w3.org/1999/xlink" width="500" zoomAndPan="magnify" viewBox="0 0 375 374.999991" height="500" preserveAspectRatio="xMidYMid meet" version="1.0"><defs><g/><clipPath id="fa8e13997e"><path d="M 4.332031 4.332031 L 370.667969 4.332031 L 370.667969 370.667969 L 4.332031 370.667969 Z M 4.332031 4.332031 " clip-rule="nonzero"/></clipPath><clipPath id="0b8724b953"><path d="M 187.5 4.332031 C 86.339844 4.332031 4.332031 86.339844 4.332031 187.5 C 4.332031 288.660156 86.339844 370.667969 187.5 370.667969 C 288.660156 370.667969 370.667969 288.660156 370.667969 187.5 C 370.667969 86.339844 288.660156 4.332031 187.5 4.332031 Z M 187.5 4.332031 " clip-rule="nonzero"/></clipPath></defs><g clip-path="url(#fa8e13997e)"><g clip-path="url(#0b8724b953)"><path fill="#ffffff" d="M 4.332031 4.332031 L 370.667969 4.332031 L 370.667969 370.667969 L 4.332031 370.667969 Z M 4.332031 4.332031 " fill-opacity="1" fill-rule="nonzero"/></g></g><g fill="#000000" fill-opacity="1"><g transform="translate(13.156892, 309.207695)"><g><path d="M 204.65625 -246.859375 C 209.695312 -246.859375 213.625 -245.109375 216.4375 -241.609375 C 219.25 -238.117188 220.65625 -234.144531 220.65625 -229.6875 C 220.65625 -225.03125 218.8125 -220.660156 215.125 -216.578125 C 211.4375 -212.503906 205.519531 -210.46875 197.375 -210.46875 L 149.921875 -210.46875 L 82.09375 -16.296875 C 80.15625 -10.867188 77 -6.796875 72.625 -4.078125 C 68.257812 -1.359375 63.554688 0 58.515625 0 C 53.078125 0 48.078125 -1.644531 43.515625 -4.9375 C 38.960938 -8.238281 36.6875 -12.898438 36.6875 -18.921875 C 36.6875 -20.085938 36.78125 -21.394531 36.96875 -22.84375 C 37.164062 -24.300781 37.554688 -25.710938 38.140625 -27.078125 L 101.890625 -210.46875 L 56.765625 -210.46875 C 51.523438 -210.46875 47.398438 -212.265625 44.390625 -215.859375 C 41.378906 -219.453125 39.875 -223.378906 39.875 -227.640625 C 39.875 -232.304688 41.71875 -236.625 45.40625 -240.59375 C 49.09375 -244.570312 55.113281 -246.660156 63.46875 -246.859375 Z M 204.65625 -246.859375 "/></g></g></g><g fill="#000000" fill-opacity="1"><g transform="translate(129.002798, 309.207695)"><g><path d="M 144.390625 -252.6875 C 159.335938 -252.6875 172.144531 -248.851562 182.8125 -241.1875 C 193.488281 -233.519531 200.476562 -223.960938 203.78125 -212.515625 C 204.550781 -209.597656 204.9375 -206.6875 204.9375 -203.78125 C 204.9375 -197.175781 202.753906 -191.984375 198.390625 -188.203125 C 194.023438 -184.421875 189.222656 -182.53125 183.984375 -182.53125 C 180.097656 -182.53125 176.40625 -183.597656 172.90625 -185.734375 C 169.414062 -187.867188 166.703125 -191.164062 164.765625 -195.625 C 162.242188 -200.664062 159.332031 -204.691406 156.03125 -207.703125 C 152.726562 -210.710938 148.847656 -212.316406 144.390625 -212.515625 C 142.253906 -212.703125 139.4375 -212.164062 135.9375 -210.90625 C 132.445312 -209.644531 129.390625 -207.65625 126.765625 -204.9375 C 124.148438 -202.21875 122.84375 -198.726562 122.84375 -194.46875 C 122.84375 -189.03125 124.785156 -183.203125 128.671875 -176.984375 C 132.554688 -170.773438 137.210938 -164.664062 142.640625 -158.65625 L 146.140625 -154.875 C 152.148438 -148.269531 158.019531 -141.234375 163.75 -133.765625 C 169.476562 -126.296875 174.28125 -118.238281 178.15625 -109.59375 C 182.039062 -100.957031 183.984375 -91.597656 183.984375 -81.515625 C 183.984375 -70.253906 181.554688 -59.722656 176.703125 -49.921875 C 171.847656 -40.117188 165.296875 -31.484375 157.046875 -24.015625 C 148.804688 -16.546875 139.347656 -10.675781 128.671875 -6.40625 C 117.992188 -2.132812 106.832031 0 95.1875 0 C 84.125 0 73.546875 -1.789062 63.453125 -5.375 C 53.367188 -8.96875 44.394531 -14.113281 36.53125 -20.8125 C 28.675781 -27.507812 22.515625 -35.515625 18.046875 -44.828125 C 13.585938 -54.140625 11.550781 -64.617188 11.9375 -76.265625 C 11.9375 -84.421875 14.410156 -90.582031 19.359375 -94.75 C 24.304688 -98.925781 29.691406 -101.015625 35.515625 -101.015625 C 41.140625 -101.015625 46.28125 -99.070312 50.9375 -95.1875 C 55.601562 -91.3125 57.9375 -85.203125 57.9375 -76.859375 C 57.9375 -76.273438 57.9375 -75.640625 57.9375 -74.953125 C 57.9375 -74.273438 57.835938 -73.550781 57.640625 -72.78125 C 57.441406 -62.488281 60.984375 -54.429688 68.265625 -48.609375 C 75.546875 -42.785156 84.425781 -39.78125 94.90625 -39.59375 C 101.3125 -39.59375 107.519531 -41.09375 113.53125 -44.09375 C 119.550781 -47.101562 124.550781 -51.472656 128.53125 -57.203125 C 132.507812 -62.929688 134.5 -69.675781 134.5 -77.4375 C 134.5 -86.164062 131.78125 -94.21875 126.34375 -101.59375 C 120.90625 -108.96875 114.789062 -116.828125 108 -125.171875 C 102.5625 -131.960938 97.222656 -138.707031 91.984375 -145.40625 C 86.742188 -152.101562 82.425781 -159.140625 79.03125 -166.515625 C 75.632812 -173.890625 73.9375 -181.75 73.9375 -190.09375 C 73.9375 -192.8125 74.226562 -195.578125 74.8125 -198.390625 C 75.394531 -201.203125 76.078125 -204.066406 76.859375 -206.984375 C 80.148438 -216.878906 85.289062 -225.222656 92.28125 -232.015625 C 99.269531 -238.804688 107.320312 -243.945312 116.4375 -247.4375 C 125.5625 -250.9375 134.878906 -252.6875 144.390625 -252.6875 Z M 144.390625 -252.6875 "/></g></g></g></svg>